<svg xmlns="http://www.w3.org/2000/svg" enable-background="new 0 0 100 100" viewBox="0 0 100 100" id="youtube">
  <g id="Layer_2">
    <path fill="red" d="M94.761,27.369c-1.075-4.045-4.24-7.231-8.26-8.312C79.216,17.092,50,17.092,50,17.092
			s-29.216,0-36.501,1.965c-4.02,1.081-7.186,4.267-8.26,8.312C3.286,34.702,3.286,50,3.286,50s0,15.298,1.952,22.631
			c1.074,4.045,4.24,7.231,8.26,8.312C20.784,82.908,50,82.908,50,82.908s29.216,0,36.502-1.965c4.02-1.082,7.185-4.267,8.26-8.312
			C96.714,65.298,96.714,50,96.714,50S96.714,34.702,94.761,27.369z"></path>
    <polygon fill="#f1f1f1" points="40.284 35.877 40.284 64.123 65.114 50.001"></polygon>
  </g>
</svg>
